<?xml version="1.0" encoding="UTF-8" standalone="no"?>
<!-- Created with Inkscape (http://www.inkscape.org/) -->

<svg
   xmlns:dc="http://purl.org/dc/elements/1.1/"
   xmlns:cc="http://creativecommons.org/ns#"
   xmlns:rdf="http://www.w3.org/1999/02/22-rdf-syntax-ns#"
   xmlns:svg="http://www.w3.org/2000/svg"
   xmlns="http://www.w3.org/2000/svg"
   xmlns:sodipodi="http://sodipodi.sourceforge.net/DTD/sodipodi-0.dtd"
   xmlns:inkscape="http://www.inkscape.org/namespaces/inkscape"
   version="1.1"
   id="svg2"
   xml:space="preserve"
   width="378.73526"
   height="120.74425"
   viewBox="0 0 378.73526 120.74425"
   sodipodi:docname="nordai-color.svg"
   inkscape:version="0.92.3 (2405546, 2018-03-11)"
   inkscape:export-filename="/home/niklas/Pictures/logo-help-us-make-science-beau/quantap rgb.eps.png"
   inkscape:export-xdpi="96"
   inkscape:export-ydpi="96"><metadata
     id="metadata8"><rdf:RDF><cc:Work
         rdf:about=""><dc:format>image/svg+xml</dc:format><dc:type
           rdf:resource="http://purl.org/dc/dcmitype/StillImage" /><dc:title></dc:title></cc:Work></rdf:RDF></metadata><defs
     id="defs6" /><sodipodi:namedview
     pagecolor="#ffffff"
     bordercolor="#666666"
     borderopacity="1"
     objecttolerance="10"
     gridtolerance="10"
     guidetolerance="10"
     inkscape:pageopacity="0"
     inkscape:pageshadow="2"
     inkscape:window-width="2560"
     inkscape:window-height="1337"
     id="namedview4"
     showgrid="false"
     showguides="false"
     inkscape:zoom="2.3743402"
     inkscape:cx="357.75431"
     inkscape:cy="111.7171"
     inkscape:window-x="0"
     inkscape:window-y="55"
     inkscape:window-maximized="1"
     inkscape:current-layer="g12"
     inkscape:snap-global="true"
     fit-margin-top="0"
     fit-margin-left="0"
     fit-margin-right="0"
     fit-margin-bottom="0" /><g
     id="g10"
     inkscape:groupmode="layer"
     inkscape:label="ink_ext_XXXXXX"
     transform="matrix(1.3333333,0,0,-1.3333333,-9.3428155,120.39203)"><g
       id="g12"
       transform="matrix(0.1,0,0,0.1,6.9492993,3.7905269)"><path
         d="m 366.555,865.035 h 182.961 c 18.812,0 34.199,-15.387 34.199,-34.195 v -0.004 c 0,-18.809 -15.387,-34.195 -34.199,-34.195 H 366.555 c -18.813,0 -34.2,15.386 -34.2,34.195 v 0.004 c 0,18.808 15.387,34.195 34.2,34.195 z M 769.746,97.289 354.582,97.285 c -10.648,10.879 -20.754,22.293 -30.266,34.203 H 180.527 c -18.812,0 -34.199,-15.386 -34.199,-34.203 0,-18.808 15.387,-34.195 34.199,-34.195 h 211.512 343.504 c 18.812,0 34.203,15.387 34.203,34.199 z m 88.359,103.637 H 278.652 c -5.929,11.129 -11.402,22.535 -16.398,34.199 H 92.1641 c -18.8086,0 -34.1953,-15.387 -34.1953,-34.199 0,-18.813 15.3867,-34.199 34.1953,-34.199 H 298.852 823.906 c 18.813,0 34.199,15.386 34.199,34.199 z m 33.977,103.637 H 239.035 c -2.758,11.238 -5.094,22.644 -6.988,34.199 H 58.1875 c -18.8125,0 -34.1992,-15.387 -34.1992,-34.199 0,-18.813 15.3867,-34.2 34.1992,-34.2 H 248.891 857.887 c 18.808,0 34.195,15.387 34.195,34.2 z M 511.168,382.09 h 370.125 c 18.812,0 34.203,15.387 34.203,34.199 L 512.145,416.285 H 343.938 251.93 221.52 c -0.102,11.512 -0.633,22.914 -1.582,34.203 H 34.7773 c -18.8085,0 -34.199175,-15.386 -34.199175,-34.203 0,-18.808 15.390675,-34.195 34.199175,-34.195 h 185.7657 30.414 92.008 z m -4.973,103.637 h 351.692 c 18.808,0 34.195,15.386 34.195,34.199 H 499.207 331 238.992 c -2.844,11.582 -6.133,22.988 -9.855,34.199 H 198.727 58.1875 c -18.8125,0 -34.1992,-15.387 -34.1992,-34.199 0,-18.813 15.3867,-34.199 34.1992,-34.199 H 215.57 245.98 337.992 Z M 148.77,657.762 H 92.1641 c -18.8086,0 -34.1953,-15.387 -34.1953,-34.199 0,-18.813 15.3867,-34.2 34.1953,-34.2 h 93.1949 30.411 92.011 168.203 347.922 c 18.813,0 34.199,15.387 34.199,34.2 H 459.59 291.387 c -6.242,11.718 -12.981,23.125 -20.199,34.199 H 179.18 Z M 413.922,693 h 321.621 c 18.812,0 34.203,15.387 34.203,34.203 l -386.082,-0.004 c -11.832,12.086 -24.34,23.504 -37.465,34.199 H 180.527 c -0.812,0 -1.617,-0.023 -2.422,-0.085 -17.691,-1.25 -31.777,-16.114 -31.777,-34.114 0,-18.812 15.387,-34.199 34.199,-34.199 h 65.192 z M 366.555,-40.546871 h 182.961 c 18.812,0 34.199,15.38667 34.199,34.1952702 v 0.004 C 583.715,12.4649 568.328,27.8478 549.516,27.8478 H 366.555 c -18.813,0 -34.2,-15.3829 -34.2,-34.1954008 v -0.004 c 0,-18.8086002 15.387,-34.1952702 34.2,-34.1952702"
         style="fill:#ee5a4c;fill-opacity:1;fill-rule:evenodd;stroke:none"
         id="path14"
         inkscape:connector-curvature="0" /><g
         aria-label="nord.ai"
         transform="matrix(7.5000002,0,0,-7.5000002,-63.175448,891.5711)"
         style="font-style:normal;font-variant:normal;font-weight:normal;font-stretch:normal;font-size:40px;line-height:1.25;font-family:nexa;-inkscape-font-specification:nexa;letter-spacing:0px;word-spacing:0px;fill:#41484c;fill-opacity:1;stroke:none"
         id="flowRoot819"><path
           id="path891"
           style="font-size:73.33333588px;fill:#41484c;fill-opacity:1"
           d="m 383.20241,39.826606 c 1.90666,0 4.03333,-1.173333 4.03333,-3.813333 0,-2.64 -2.12667,-3.96 -4.03333,-3.96 -2.05334,0 -3.96,1.32 -3.96,3.886666 0,2.640001 1.90666,3.886667 3.96,3.886667 z m -3.08,43.413335 h 6.01333 V 47.013273 h -6.01333 z m -30.55594,0.88 c 4.98667,0 10.48667,-2.346667 13.34667,-7.26 l 0.14666,6.38 h 5.94 V 47.013273 h -5.86666 l -0.0733,6.6 c -2.78666,-5.133333 -7.7,-7.406667 -13.42,-7.406667 -10.26666,0 -18.62666,6.673334 -18.62666,18.920001 0,11.806667 8.14,18.993334 18.55333,18.993334 z m 0.29333,-5.5 c -7.18666,0 -13.05333,-5.28 -13.05333,-13.273334 0,-8.506667 5.86667,-13.42 13.05333,-13.42 8.8,0 13.2,6.6 13.2,13.273333 0,6.746667 -4.4,13.420001 -13.2,13.420001 z m -30.7473,5.28 c 1.98,0 3.96,-1.32 3.96,-3.886667 0,-2.64 -1.98,-3.96 -4.03333,-3.96 -1.98,0 -3.96,1.32 -3.96,3.886667 0,2.64 1.98,3.96 4.03333,3.96 z m -33.85937,0.22 c 5.35333,0 10.63333,-2.566667 13.56667,-7.553334 l 0.29333,6.673334 h 5.72 V 31.833273 l -0.0733,0.07333 h -6.01334 V 53.61327 c -2.56666,-4.913333 -8.43333,-7.406667 -13.49333,-7.406667 -10.34,0 -18.33333,6.746667 -18.33333,18.920001 0,12.393334 7.99333,18.993334 18.33333,18.993334 z m 0.44,-5.72 c -7.04,0 -12.83333,-4.473334 -12.83333,-13.346667 0,-8.506667 5.79333,-13.200001 12.76,-13.200001 7.26,0 12.90666,5.353334 12.90666,13.126667 0,7.920001 -5.57333,13.420001 -12.83333,13.420001 z m -46.79469,4.84 h 6.01333 V 62.99994 c 0,-6.6 4.84,-10.853333 10.63333,-10.853333 2.56667,0 4.32667,0.66 6.30667,2.053333 l 2.71334,-5.133333 c -2.2,-1.540001 -5.13334,-2.860001 -8.21334,-2.860001 -4.10667,0 -8.65333,1.393334 -11.36667,6.160001 l -0.51333,-5.353334 h -5.57333 z m -27.54469,0.88 c 10.85334,0 18.92,-7.7 18.92,-18.920001 0,-11.22 -7.92,-18.993334 -18.92,-18.993334 -10.78,0 -18.77333,7.773334 -18.77333,18.993334 0,11.220001 7.92,18.920001 18.77333,18.920001 z m 0,-5.646667 c -7.33333,0 -12.83333,-5.426667 -12.83333,-13.273334 0,-7.993333 5.57333,-13.42 12.90667,-13.42 7.26,0 12.83333,5.426667 12.83333,13.42 0,7.846667 -5.42667,13.273334 -12.90667,13.273334 z m -60.2376,4.766667 h 5.94 V 63.806607 c 0,-6.453334 4.32666,-11.953334 10.92666,-11.953334 6.96667,0 10.48667,4.106667 10.48667,11.366667 v 20.020001 h 6.08667 V 63.146607 c 0,-10.926667 -6.38,-16.940001 -15.4,-16.940001 -4.91334,0 -9.02,1.833334 -12.24667,6.526667 l -0.29333,-5.72 h -5.5 z"
           inkscape:connector-curvature="0" /></g></g></g></svg>